<?xml version="1.0" encoding="UTF-8"?>
<svg xmlns="http://www.w3.org/2000/svg" width="512" height="512" version="1.1" viewBox="0 0 512 512">
  <defs>
    <style>
      .cls-1 {
        fill: #fff;
      }
    </style>
  </defs>
  <!-- Generator: Adobe Illustrator 28.7.1, SVG Export Plug-In . SVG Version: 1.2.0 Build 142)  -->
  <g>
    <g id="Layer_1">
      <path class="cls-1" d="M492.9084,417.5844l-72.9272-72.9272,11.4205-11.4205c3.8476-3.7006,3.8476-10.3496,0-14.0502l-33.6854-33.6845c-3.8804-3.8784-10.1688-3.8784-14.0502,0l-26.6688,26.6688-29.1117-29.1107c49.7463-68.6574,40.9971-171.5039-20.3813-230.6233-67.0897-69.9101-187.7982-69.922-254.885.002-112.9547,112.4411-31.8456,308.3339,127.445,307.6693,37.4436.001,73.1427-11.346,103.1783-32.4049l29.1107,29.1116-26.6688,26.6688c-3.8794,3.8794-3.8794,10.1698,0,14.0502l33.6845,33.6854c3.6996,3.8476,10.3506,3.8476,14.0502,0l11.4205-11.4205,72.9272,72.9272c20.7171,20.7161,54.4244,20.7161,75.1416,0,20.7162-20.7171,20.7162-54.4254,0-75.1416h0ZM66.6686,293.2717c-62.5249-62.5249-62.5249-164.2607,0-226.7857,59.6886-62.209,167.098-62.211,226.7857,0,62.208,59.6946,62.211,167.094-.002,226.7857-59.6847,62.208-167.097,62.211-226.7837,0h0ZM298.9608,315.322c2.9167-2.568,5.7709-5.2275,8.5436-8.0002s5.4331-5.6268,8.0002-8.5436l27.4437,27.4427-16.5447,16.5447-27.4427-27.4437ZM326.3946,410.1445l-19.6363-19.6363,83.9325-83.9325,19.6363,19.6363-83.9325,83.9325ZM478.8582,478.6757c-12.9683,12.9703-34.0719,12.9723-47.0422,0l-72.9272-72.9272,47.0422-47.0422,72.9272,72.9272c12.9703,12.9693,12.9703,34.0729,0,47.0422Z"/>
    </g>
  </g>
</svg>