<svg width="24" height="26" viewBox="0 0 24 26" fill="none" xmlns="http://www.w3.org/2000/svg">
<path d="M16.9973 25C16.9973 25.5523 16.5496 26 15.9973 26H7.99731C7.44503 26 6.99731 25.5523 6.99731 25C6.99731 24.4477 7.44503 24 7.99731 24H15.9973C16.5496 24 16.9973 24.4477 16.9973 25ZM21.9973 22.0001H1.99731C1.28172 21.999 0.621144 21.6158 0.265107 20.9951C-0.0909295 20.3743 -0.0881743 19.6107 0.272309 18.9925C0.966059 17.7975 1.99731 14.4175 1.99731 10C1.99731 4.47715 6.47447 0 11.9973 0C17.5202 0 21.9973 4.47715 21.9973 10C21.9973 14.4163 23.0298 17.7975 23.7235 18.9925C24.0877 19.6117 24.0892 20.3794 23.7273 21C23.3753 21.6224 22.713 22.005 21.9973 22.0001ZM21.9973 20C21.0311 18.3412 19.9973 14.5063 19.9973 10C19.9973 5.58172 16.4156 2 11.9973 2C7.57904 2 3.99731 5.58172 3.99731 10C3.99731 14.5075 2.96231 18.3425 1.99731 20H21.9973Z" fill="#FFEE00"/>
</svg>
