<svg width="15" height="18" viewBox="0 0 15 18" fill="none" xmlns="http://www.w3.org/2000/svg">
<path d="M7.90186 10.25C7.28379 10.25 6.6796 10.0667 6.1657 9.72334C5.6518 9.37997 5.25126 8.89191 5.01473 8.32089C4.77821 7.74987 4.71632 7.12154 4.8369 6.51534C4.95748 5.90915 5.25511 5.35233 5.69215 4.91529C6.12919 4.47825 6.68601 4.18063 7.2922 4.06005C7.89839 3.93947 8.52672 4.00135 9.09774 4.23788C9.66876 4.4744 10.1568 4.87494 10.5002 5.38884C10.8436 5.90275 11.0269 6.50694 11.0269 7.125C11.0259 7.9535 10.6963 8.74778 10.1105 9.33361C9.52463 9.91945 8.73035 10.249 7.90186 10.25ZM7.90186 5.25C7.53102 5.25 7.1685 5.35997 6.86016 5.566C6.55182 5.77202 6.3115 6.06486 6.16958 6.40747C6.02767 6.75008 5.99054 7.12708 6.06288 7.4908C6.13523 7.85451 6.31381 8.1886 6.57603 8.45083C6.83826 8.71305 7.17235 8.89163 7.53606 8.96397C7.89978 9.03632 8.27678 8.99919 8.61939 8.85728C8.962 8.71536 9.25484 8.47504 9.46086 8.1667C9.66689 7.85835 9.77686 7.49584 9.77686 7.125C9.77636 6.62787 9.57866 6.15125 9.22713 5.79972C8.87561 5.4482 8.39899 5.2505 7.90186 5.25Z" fill="#FFEE00"/>
<path d="M7.85187 17.75L2.57937 11.5319C2.50611 11.4385 2.43361 11.3445 2.36187 11.25C1.46169 10.0634 0.975196 8.61443 0.976872 7.125C0.976872 5.30164 1.7012 3.55295 2.99051 2.26364C4.27983 0.974328 6.02851 0.25 7.85187 0.25C9.67523 0.25 11.4239 0.974328 12.7132 2.26364C14.0025 3.55295 14.7269 5.30164 14.7269 7.125C14.7283 8.61372 14.2421 10.0619 13.3425 11.2481L13.3419 11.25C13.3419 11.25 13.1544 11.4963 13.1262 11.5294L7.85187 17.75ZM3.36 10.4969C3.36 10.4969 3.50562 10.6894 3.53875 10.7306L7.85187 15.8175L12.1706 10.7237C12.1981 10.6894 12.3444 10.4956 12.345 10.495C13.0808 9.52572 13.4784 8.3419 13.4769 7.125C13.4769 5.63316 12.8842 4.20242 11.8293 3.14752C10.7745 2.09263 9.34371 1.5 7.85187 1.5C6.36003 1.5 4.92929 2.09263 3.8744 3.14752C2.8195 4.20242 2.22687 5.63316 2.22687 7.125C2.22533 8.34269 2.6234 9.52724 3.36 10.4969Z" fill="#EDEDED"/>
</svg>
