<svg width="27" height="16" viewBox="0 0 27 16" fill="none" xmlns="http://www.w3.org/2000/svg">
<path fill-rule="evenodd" clip-rule="evenodd" d="M5.44183 2.61548C5.71798 2.61548 5.94183 2.83934 5.94183 3.11548V8.46539C5.94183 8.74154 5.71798 8.96539 5.44183 8.96539C5.16569 8.96539 4.94183 8.74154 4.94183 8.46539V3.11548C4.94183 2.83934 5.16569 2.61548 5.44183 2.61548Z" fill="#EDEDED"/>
<path fill-rule="evenodd" clip-rule="evenodd" d="M9.37561 2.61548C9.65175 2.61548 9.87561 2.83934 9.87561 3.11548V8.46539C9.87561 8.74154 9.65175 8.96539 9.37561 8.96539C9.09947 8.96539 8.87561 8.74154 8.87561 8.46539V3.11548C8.87561 2.83934 9.09947 2.61548 9.37561 2.61548Z" fill="#EDEDED"/>
<path fill-rule="evenodd" clip-rule="evenodd" d="M13.3094 2.61548C13.5855 2.61548 13.8094 2.83934 13.8094 3.11548V8.46539C13.8094 8.74154 13.5855 8.96539 13.3094 8.96539C13.0332 8.96539 12.8094 8.74154 12.8094 8.46539V3.11548C12.8094 2.83934 13.0332 2.61548 13.3094 2.61548Z" fill="#EDEDED"/>
<path fill-rule="evenodd" clip-rule="evenodd" d="M17.2432 2.61548C17.5193 2.61548 17.7432 2.83934 17.7432 3.11548V8.46539C17.7432 8.74154 17.5193 8.96539 17.2432 8.96539C16.967 8.96539 16.7432 8.74154 16.7432 8.46539V3.11548C16.7432 2.83934 16.967 2.61548 17.2432 2.61548Z" fill="#EDEDED"/>
<path fill-rule="evenodd" clip-rule="evenodd" d="M21.1769 2.61548C21.4531 2.61548 21.6769 2.83934 21.6769 3.11548V8.46539C21.6769 8.74154 21.4531 8.96539 21.1769 8.96539C20.9008 8.96539 20.6769 8.74154 20.6769 8.46539V3.11548C20.6769 2.83934 20.9008 2.61548 21.1769 2.61548Z" fill="#EDEDED"/>
<path fill-rule="evenodd" clip-rule="evenodd" d="M26.0942 12.6238L0.563967 12.6239C0.287825 12.6239 0.0639661 12.4 0.0639648 12.1239C0.0639637 11.8478 0.28782 11.6239 0.563963 11.6239L26.0942 11.6238C26.3703 11.6238 26.5942 11.8476 26.5942 12.1238C26.5942 12.3999 26.3703 12.6238 26.0942 12.6238Z" fill="#EDEDED"/>
<path fill-rule="evenodd" clip-rule="evenodd" d="M23.6306 1.96277H3.25061V9.32385H23.6306V1.96277ZM3.25061 0.962769C2.69833 0.962769 2.25061 1.41048 2.25061 1.96277V9.32385C2.25061 9.87614 2.69833 10.3239 3.25061 10.3239H23.6306C24.1829 10.3239 24.6306 9.87614 24.6306 9.32385V1.96277C24.6306 1.41048 24.1829 0.962769 23.6306 0.962769H3.25061Z" fill="#EDEDED"/>
<path fill-rule="evenodd" clip-rule="evenodd" d="M4.02571 14.5855C4.42935 14.5855 4.75656 14.2583 4.75656 13.8546C4.75656 13.451 4.42935 13.1238 4.02571 13.1238C3.62207 13.1238 3.29486 13.451 3.29486 13.8546C3.29486 14.2583 3.62207 14.5855 4.02571 14.5855ZM4.02571 15.5855C4.98163 15.5855 5.75656 14.8106 5.75656 13.8546C5.75656 12.8987 4.98163 12.1238 4.02571 12.1238C3.06979 12.1238 2.29486 12.8987 2.29486 13.8546C2.29486 14.8106 3.06979 15.5855 4.02571 15.5855Z" fill="#EDEDED"/>
<path fill-rule="evenodd" clip-rule="evenodd" d="M7.17268 14.5855C7.57632 14.5855 7.90353 14.2583 7.90353 13.8546C7.90353 13.451 7.57632 13.1238 7.17268 13.1238C6.76905 13.1238 6.44183 13.451 6.44183 13.8546C6.44183 14.2583 6.76905 14.5855 7.17268 14.5855ZM7.17268 15.5855C8.12861 15.5855 8.90353 14.8106 8.90353 13.8546C8.90353 12.8987 8.12861 12.1238 7.17268 12.1238C6.21676 12.1238 5.44183 12.8987 5.44183 13.8546C5.44183 14.8106 6.21676 15.5855 7.17268 15.5855Z" fill="#EDEDED"/>
<path fill-rule="evenodd" clip-rule="evenodd" d="M20.1148 14.5855C20.5185 14.5855 20.8457 14.2583 20.8457 13.8546C20.8457 13.451 20.5185 13.1238 20.1148 13.1238C19.7112 13.1238 19.384 13.451 19.384 13.8546C19.384 14.2583 19.7112 14.5855 20.1148 14.5855ZM20.1148 15.5855C21.0707 15.5855 21.8457 14.8106 21.8457 13.8546C21.8457 12.8987 21.0707 12.1238 20.1148 12.1238C19.1589 12.1238 18.384 12.8987 18.384 13.8546C18.384 14.8106 19.1589 15.5855 20.1148 15.5855Z" fill="#EDEDED"/>
<path fill-rule="evenodd" clip-rule="evenodd" d="M22.9078 14.5855C23.3114 14.5855 23.6386 14.2583 23.6386 13.8546C23.6386 13.451 23.3114 13.1238 22.9078 13.1238C22.5042 13.1238 22.1769 13.451 22.1769 13.8546C22.1769 14.2583 22.5042 14.5855 22.9078 14.5855ZM22.9078 15.5855C23.8637 15.5855 24.6386 14.8106 24.6386 13.8546C24.6386 12.8987 23.8637 12.1238 22.9078 12.1238C21.9519 12.1238 21.1769 12.8987 21.1769 13.8546C21.1769 14.8106 21.9519 15.5855 22.9078 15.5855Z" fill="#EDEDED"/>
</svg>

