<svg width="41" height="14" viewBox="0 0 41 14" fill="none" xmlns="http://www.w3.org/2000/svg">
<path d="M17.5072 10.4369H1.63501C1.2843 10.4369 1.00012 10.1059 1.00012 9.69766V2.3053C1.00012 1.89705 1.2843 1.56598 1.63501 1.56598H25.1261C25.4768 1.56598 25.761 1.89705 25.761 2.3053V10.4369H21.317" stroke="#EDEDED" stroke-width="1.2" stroke-miterlimit="10" stroke-linecap="round" stroke-linejoin="round"/>
<path d="M38.4578 11.9149H39.7275C40.0782 11.9149 40.3624 11.5839 40.3624 11.1757V8.21869C40.3624 7.81044 40.0782 7.47946 39.7275 7.47946H34.6484C34.2977 7.47946 34.0135 7.14849 34.0135 6.74024V3.78333C34.0135 2.55848 33.1607 1.56556 32.1088 1.56556H28.9343C28.5837 1.56556 28.2994 1.89653 28.2994 2.30488V8.95801" stroke="#EDEDED" stroke-width="1.2" stroke-miterlimit="10" stroke-linecap="round" stroke-linejoin="round"/>
<path d="M31.4731 4.52268V8.95813" stroke="#EDEDED" stroke-width="1.2" stroke-miterlimit="10" stroke-linecap="round" stroke-linejoin="round"/>
<path d="M28.2994 4.52259H35.1334C35.6144 4.52259 36.054 4.83899 36.2692 5.33983L37.188 7.47949" stroke="#EDEDED" stroke-width="1.2" stroke-miterlimit="10" stroke-linecap="round" stroke-linejoin="round"/>
<path d="M38.4564 11.9151C38.4564 12.7316 37.8879 13.3936 37.1866 13.3936C36.4853 13.3936 35.9169 12.7316 35.9169 11.9151C35.9169 11.0986 36.4853 10.4366 37.1866 10.4366C37.8879 10.4366 38.4564 11.0986 38.4564 11.9151Z" stroke="#EDEDED" stroke-width="1.2" stroke-miterlimit="10" stroke-linecap="round" stroke-linejoin="round"/>
<path d="M27.0298 11.9151C27.0298 12.7316 26.4613 13.3936 25.7601 13.3936C25.0588 13.3936 24.4903 12.7316 24.4903 11.9151C24.4903 11.0986 25.0588 10.4366 25.7601 10.4366C26.4613 10.4366 27.0298 11.0986 27.0298 11.9151Z" stroke="#EDEDED" stroke-width="1.2" stroke-miterlimit="10" stroke-linecap="round" stroke-linejoin="round"/>
<path d="M22.5862 11.9151C22.5862 12.7316 22.0177 13.3936 21.3164 13.3936C20.6151 13.3936 20.0466 12.7316 20.0466 11.9151C20.0466 11.0986 20.6151 10.4366 21.3164 10.4366C22.0177 10.4366 22.5862 11.0986 22.5862 11.9151Z" stroke="#EDEDED" stroke-width="1.2" stroke-miterlimit="10" stroke-linecap="round" stroke-linejoin="round"/>
<path d="M10.5224 11.9151C10.5224 12.7316 9.95388 13.3936 9.25262 13.3936C8.55136 13.3936 7.98285 12.7316 7.98285 11.9151C7.98285 11.0986 8.55136 10.4366 9.25262 10.4366C9.95388 10.4366 10.5224 11.0986 10.5224 11.9151Z" stroke="#EDEDED" stroke-width="1.2" stroke-miterlimit="10" stroke-linecap="round" stroke-linejoin="round"/>
<path d="M6.07622 11.9151C6.07622 12.7316 5.50771 13.3936 4.80645 13.3936C4.10512 13.3936 3.53668 12.7316 3.53668 11.9151C3.53668 11.0986 4.10512 10.4366 4.80645 10.4366C5.50771 10.4366 6.07622 11.0986 6.07622 11.9151Z" stroke="#EDEDED" stroke-width="1.2" stroke-miterlimit="10" stroke-linecap="round" stroke-linejoin="round"/>
<path d="M33.377 11.9149H27.028" stroke="#EDEDED" stroke-width="1.2" stroke-miterlimit="10" stroke-linecap="round" stroke-linejoin="round"/>
<path d="M25.7604 8.95801H31.4746V11.9149" stroke="#EDEDED" stroke-width="1.2" stroke-miterlimit="10" stroke-linecap="round" stroke-linejoin="round"/>
</svg>
