<svg width="28" height="19" viewBox="0 0 28 19" fill="none" xmlns="http://www.w3.org/2000/svg">
<path d="M7.22513 16.7326C7.22513 17.6203 6.49961 18.3398 5.60445 18.3398C4.70929 18.3398 3.98376 17.6203 3.98376 16.7326C3.98376 15.8449 4.70929 15.1253 5.60445 15.1253C6.49961 15.1253 7.22513 15.8449 7.22513 16.7326Z" stroke="white" stroke-miterlimit="10" stroke-linecap="round" stroke-linejoin="round"/>
<path d="M10.4665 16.7326C10.4665 17.6203 9.74094 18.3398 8.84578 18.3398C7.95062 18.3398 7.2251 17.6203 7.2251 16.7326C7.2251 15.8449 7.95062 15.1253 8.84578 15.1253C9.74094 15.1253 10.4665 15.8449 10.4665 16.7326Z" stroke="white" stroke-miterlimit="10" stroke-linecap="round" stroke-linejoin="round"/>
<path d="M22.1354 16.7326C22.1354 17.6203 21.4099 18.3398 20.5147 18.3398C19.6196 18.3398 18.894 17.6203 18.894 16.7326C18.894 15.8449 19.6196 15.1253 20.5147 15.1253C21.4099 15.1253 22.1354 15.8449 22.1354 16.7326Z" stroke="white" stroke-miterlimit="10" stroke-linecap="round" stroke-linejoin="round"/>
<path d="M13.8699 16.7325V1.73152C13.8699 1.13952 14.3534 0.660021 14.9504 0.660021H17.2734C19.9588 0.660021 22.1354 2.81856 22.1354 5.48178V6.73803C22.1354 8.7072 23.7318 10.3035 25.7009 10.3035V10.3035C26.5961 10.3035 27.3216 11.023 27.3216 11.9108V15.661C27.3216 16.253 26.8381 16.7325 26.2412 16.7325H22.1354" stroke="white" stroke-miterlimit="10" stroke-linecap="round" stroke-linejoin="round"/>
<path d="M3.98374 16.7325H0.742371" stroke="#FFFF00" stroke-miterlimit="10" stroke-linecap="round" stroke-linejoin="round"/>
<path d="M22.1354 10.3035H19.6843C18.3528 10.3035 17.2734 9.22408 17.2734 7.89259V7.89259C17.2734 6.5611 18.3528 5.48171 19.6843 5.48171H22.1354" stroke="white" stroke-miterlimit="10" stroke-linecap="round" stroke-linejoin="round"/>
<path d="M21.3536 9.49988H20.1233C19.4549 9.49988 18.9131 8.95807 18.9131 8.28971C18.9131 7.62135 19.4549 7.07954 20.1233 7.07954H21.3536" fill="#FFFF00"/>
<path d="M10.4665 5.48181H13.8699" stroke="white" stroke-miterlimit="10" stroke-linecap="round" stroke-linejoin="round"/>
<path d="M13.8699 5.48181H17.2734" stroke="white" stroke-miterlimit="10" stroke-linecap="round" stroke-linejoin="round"/>
<path d="M25.7009 13.5181H27.3216" stroke="#FFFF00" stroke-miterlimit="10" stroke-linecap="round" stroke-linejoin="round"/>
<path d="M11.0067 10.8392C11.0067 11.1351 10.7649 11.375 10.4665 11.375C10.1681 11.375 9.92627 11.1351 9.92627 10.8392C9.92627 10.5434 10.1681 10.3035 10.4665 10.3035C10.7649 10.3035 11.0067 10.5434 11.0067 10.8392Z" fill="#FFFF00"/>
<path d="M8.84583 0.66008V0.66008C9.88307 1.68872 10.4665 3.08904 10.4665 4.54985V8.42847" stroke="white" stroke-miterlimit="10" stroke-linecap="round" stroke-linejoin="round"/>
<path d="M10.4665 13.2502V13.2502C10.4665 15.1734 12.0256 16.7325 13.9489 16.7325H18.8941" stroke="white" stroke-miterlimit="10" stroke-linecap="round" stroke-linejoin="round"/>
</svg>

